<svg width="35" height="35" viewBox="0 0 35 35" fill="none" xmlns="http://www.w3.org/2000/svg" transform="matrix(1, 0, 0, 1, 0, 0)">
<path d="M10.2188 20.181C5.91576 24.3172 6.39899 30.4726 9.50259 32.8802C12.2524 35.0115 17.3551 34.4305 19.6792 31.2838C20.6226 30.0067 21.1231 28.324 20.9419 26.3134C22.823 32.2474 30.0744 31.3557 32.5969 26.6701C34.737 22.6978 34.4838 15.1387 28.1875 15.7485C28.6333 15.6737 32.0648 15.0409 33.6785 11.9402C34.9297 9.53557 34.9642 5.88834 32.7666 4.14526C30.5662 2.40218 27.3878 3.56999 26.5882 3.86338C23.5623 4.97653 22.1615 7.50198 21.7962 8.21532C21.1346 3.24784 17.7808 -0.0427262 14.5823 0.000419248C12.8478 0.0234302 11.0846 1.02441 10.0894 2.52874C8.48148 4.95927 8.93882 8.63239 11.493 11.3045C8.28301 10.6861 5.9359 11.1665 4.68468 11.5375C3.60604 11.8568 2.97899 12.2048 2.49576 12.55C2.20813 12.7571 -0.274177 14.5893 0.024965 16.9163C0.154402 17.9115 0.738304 18.5932 0.982795 18.8694C3.56577 21.7946 9.63203 20.3248 10.2188 20.1752V20.181Z" fill="#fd7e98"/>
<path d="M15.0304 15.6232C14.2105 17.1113 14.2846 19.2983 15.4839 20.2225C17.1309 21.4929 20.7154 20.2384 21.2097 17.8922C21.6041 16.0262 19.9957 13.6966 18.0513 13.6181C16.2142 13.5445 15.0891 15.5183 15.0304 15.6232Z" fill="#faf9dc"/>
</svg>