<svg id="SvgjsSvg1001" width="288" height="288" xmlns="http://www.w3.org/2000/svg" version="1.1" xmlns:xlink="http://www.w3.org/1999/xlink" xmlns:svgjs="http://svgjs.com/svgjs"><defs id="SvgjsDefs1002"></defs><g id="SvgjsG1008"><svg xmlns="http://www.w3.org/2000/svg" viewBox="0 0 16 16" width="288" height="288"><path style="line-height:normal;text-indent:0;text-align:start;text-decoration-line:none;text-decoration-style:solid;text-decoration-color:#000;text-transform:none;block-progression:tb;white-space:normal;isolation:auto;mix-blend-mode:normal;solid-color:#000;solid-opacity:1" fill-rule="evenodd" d="M5.986 3a1 1 0 0 0-.984 1.016v7.97a1 1 0 0 0 .018.2 1 1 0 0 0 .023.097 1 1 0 0 0 .074.184 1 1 0 0 0 .035.058 1 1 0 0 0 .028.043 1 1 0 0 0 .004.006 1 1 0 0 0 .045.059 1 1 0 0 0 .06.068 1 1 0 0 0 .012.01 1 1 0 0 0 .035.033 1 1 0 0 0 .055.047 1 1 0 0 0 .082.057 1 1 0 0 0 .088.048 1 1 0 0 0 .091.04 1 1 0 0 0 .094.029 1 1 0 0 0 .098.021 1 1 0 0 0 .004 0 1 1 0 0 0 .2.012h3.938a1 1 0 1 0 0-2H7V4.016A1 1 0 0 0 5.986 3z" color="#000" font-family="sans-serif" font-weight="400" overflow="visible" fill="#5278a7" class="svgShape color000000-0 selectable"></path></svg></g></svg>